<mxfile host="app.diagrams.net" modified="2022-10-13T08:19:14.230Z" agent="5.0 (Windows NT 10.0; Win64; x64) AppleWebKit/537.36 (KHTML, like Gecko) Chrome/105.0.0.0 Safari/537.36" etag="WJI5dWS3caH7CgJIUXVK" version="20.4.0" type="github">
  <diagram id="JsKUUjaRORLIi8CMQqDV" name="Sayfa -1">
    <mxGraphModel dx="1396" dy="318" grid="1" gridSize="10" guides="1" tooltips="1" connect="1" arrows="1" fold="1" page="1" pageScale="1" pageWidth="827" pageHeight="1169" math="0" shadow="0">
      <root>
        <mxCell id="0" />
        <mxCell id="1" parent="0" />
        <mxCell id="qa2mwAivZeo6l3mLT-YM-1" value="Start" style="ellipse;whiteSpace=wrap;html=1;" vertex="1" parent="1">
          <mxGeometry x="40" y="40" width="80" height="40" as="geometry" />
        </mxCell>
        <mxCell id="qa2mwAivZeo6l3mLT-YM-2" value="" style="rounded=0;whiteSpace=wrap;html=1;" vertex="1" parent="1">
          <mxGeometry x="-80" width="80" height="40" as="geometry" />
        </mxCell>
        <mxCell id="qa2mwAivZeo6l3mLT-YM-3" value="Start" style="ellipse;whiteSpace=wrap;html=1;" vertex="1" parent="1">
          <mxGeometry x="-80" y="40" width="80" height="40" as="geometry" />
        </mxCell>
        <mxCell id="qa2mwAivZeo6l3mLT-YM-4" value="" style="rhombus;whiteSpace=wrap;html=1;" vertex="1" parent="1">
          <mxGeometry x="-80" y="80" width="80" height="80" as="geometry" />
        </mxCell>
      </root>
    </mxGraphModel>
  </diagram>
</mxfile>
